<svg xmlns="http://www.w3.org/2000/svg" xmlns:xlink="http://www.w3.org/1999/xlink" viewBox="0 0 289.65 270.71"><defs><style>.cls-1{isolation:isolate;}.cls-2,.cls-9{fill:#fff;}.cls-3{fill:#003064;}.cls-4{mask:url(#mask);}.cls-5{fill:#fcb210;}.cls-6{mask:url(#mask-2);}.cls-7{mask:url(#mask-3);}.cls-8{mask:url(#mask-4);}.cls-9{mix-blend-mode:darken;}.cls-10{mask:url(#mask-5);}.cls-11{mask:url(#mask-6);}.cls-12{mask:url(#mask-7);}</style><mask id="mask" x="8.36" y="-8817.23" width="272.97" height="32766" maskUnits="userSpaceOnUse"/><mask id="mask-2" x="157.53" y="-8817.23" width="5.14" height="32766" maskUnits="userSpaceOnUse"/><mask id="mask-3" x="148.52" y="-8817.23" width="4.93" height="32766" maskUnits="userSpaceOnUse"/><mask id="mask-4" x="165.16" y="-8817.23" width="4.8" height="32766" maskUnits="userSpaceOnUse"/><mask id="mask-5" x="126.31" y="-8817.23" width="5.79" height="32766" maskUnits="userSpaceOnUse"/><mask id="mask-6" x="135.78" y="-8817.23" width="5.61" height="32766" maskUnits="userSpaceOnUse"/><mask id="mask-7" x="116.64" y="-8817.23" width="5.06" height="32766" maskUnits="userSpaceOnUse"/></defs><title>logo</title><g class="cls-1"><g id="Calque_1" data-name="Calque 1"><path class="cls-2" d="M895.75,281.53a27.78,27.78,0,0,0,2.79,1.84q-.28-3-.51-5.94a10.74,10.74,0,0,1-.36,1.57A5,5,0,0,1,895.75,281.53Z" transform="translate(-630.57 -241.23)"/><path class="cls-3" d="M919.38,362.72a123.11,123.11,0,0,0-2.77-16c-1-3.9-2-7.81-3.35-11.63a147.56,147.56,0,0,0-5.76-14,129,129,0,0,0-9.3-16.28c-1.79-2.68-3.71-5.28-5.67-7.85A133.3,133.3,0,0,0,882,285c-2.08-2.14-4.23-4.21-6.46-6.18a149.91,149.91,0,0,0-13.3-10.53c-3.4-2.38-6.87-4.63-10.45-6.7a149.92,149.92,0,0,0-19.45-9.47,151.33,151.33,0,0,0-44.14-10.34c-4.84-.41-9.69-.54-14.55-.51a150.16,150.16,0,0,0-23.86,2.1,151,151,0,0,0-50.61,18.15,138.69,138.69,0,0,0-14.52,9.61,142.45,142.45,0,0,0-18,16.14q-4.58,4.86-8.66,10.13a140.58,140.58,0,0,0-9,13.12c-2.09,3.46-4,7-5.75,10.66a129.28,129.28,0,0,0-6,14.85c-1.08,3.19-2,6.46-2.87,9.72a153.92,153.92,0,0,0-2.85,15.49,89.56,89.56,0,0,0-.86,11.8,113.44,113.44,0,0,0,1.32,21.62A127.81,127.81,0,0,0,635,409.74c1,3.43,2,6.88,3.21,10.25A139.06,139.06,0,0,0,644,433.47,131.71,131.71,0,0,0,653.08,449a133.37,133.37,0,0,0,8.8,11.56,134.84,134.84,0,0,0,12.06,12.55,144.63,144.63,0,0,0,32.66,22.57,148.85,148.85,0,0,0,23.69,9.54A155.1,155.1,0,0,0,806,508.89,147.92,147.92,0,0,0,833,500.75a156.26,156.26,0,0,0,15-7.11,145.24,145.24,0,0,0,19.05-12.34,137.15,137.15,0,0,0,10.51-8.92,139,139,0,0,0,14.73-16.05c1.12-1.44,2.17-2.92,3.26-4.38a124.27,124.27,0,0,0,9.9-15.91,119.11,119.11,0,0,0,5.68-12.37,131.9,131.9,0,0,0,6-19.65c.55-2.41,1-4.85,1.34-7.3a132.84,132.84,0,0,0,1.66-17.81A116.87,116.87,0,0,0,919.38,362.72Zm-2.3,39.76a119.31,119.31,0,0,1-3,11.59,148.17,148.17,0,0,1-5.83,15.27,125.93,125.93,0,0,1-5.9,11.43,135.26,135.26,0,0,1-8.87,13.37,138.82,138.82,0,0,1-11.87,13.76,140.46,140.46,0,0,1-14.76,13,145.35,145.35,0,0,1-23.75,14.81,147.8,147.8,0,0,1-25,9.71,155.68,155.68,0,0,1-18.61,4.13,152.2,152.2,0,0,1-22,1.87c-.31,0-.61,0-.91,0-.68.06-1-.15-1-.92,0-1.67.06-3.34,0-5,0-.84.34-1,1.07-1,3.19-.09,6.37-.15,9.56-.38a146.3,146.3,0,0,0,22.9-3.51A140.77,140.77,0,0,0,840,489.44a137.87,137.87,0,0,0,34.65-24.72q4.65-4.57,8.83-9.57a125.72,125.72,0,0,0,9-12.17q3.15-4.83,5.83-9.92a132.73,132.73,0,0,0,6.18-13.64c1.13-2.87,2-5.83,2.94-8.75a111.29,111.29,0,0,0,3.19-13.86,115.53,115.53,0,0,0,1.49-28.1,77.35,77.35,0,0,0-1-10,141,141,0,0,0-3-14.22c-.85-2.91-1.73-5.81-2.76-8.66a127.89,127.89,0,0,0-6.06-14,110.88,110.88,0,0,0-5.69-10,127.54,127.54,0,0,0-9.79-13.45c-2.23-2.63-4.48-5.21-6.88-7.68A132.72,132.72,0,0,0,863,278.3q-4.62-3.59-9.5-6.78A136.87,136.87,0,0,0,836.3,262a145.43,145.43,0,0,0-16.22-6.36,147.42,147.42,0,0,0-19-4.73,2.84,2.84,0,0,0-1.8,0c1.12.65,2.4.54,3.6.77a142.87,142.87,0,0,1,27.22,8.09,139.87,139.87,0,0,1,17.62,8.7,137.63,137.63,0,0,1,15,10.19,131.35,131.35,0,0,1,11.83,10.4,128.69,128.69,0,0,1,9,9.84A124.74,124.74,0,0,1,892.44,311c2.16,3.35,4.14,6.8,6,10.34a134.11,134.11,0,0,1,6,13.55c1.18,3.07,2,6.22,3,9.35a114.1,114.1,0,0,1,3.17,15.1,112.11,112.11,0,0,1,1.28,20.7c0,.5-.06,1-.09,1.48v0a71.24,71.24,0,0,1-.76,9.79A145.2,145.2,0,0,1,908,407c-.84,3-1.72,6-2.75,9a125.09,125.09,0,0,1-6.1,14.49,111.71,111.71,0,0,1-5.63,10,124.62,124.62,0,0,1-9.81,13.62c-2.11,2.51-4.26,5-6.53,7.37A130.85,130.85,0,0,1,863,474.33c-3.12,2.43-6.31,4.72-9.61,6.87A136.07,136.07,0,0,1,833.25,492a139.81,139.81,0,0,1-15.46,5.72A146,146,0,0,1,771.46,504a147.29,147.29,0,0,1-29.27-3.76,142.24,142.24,0,0,1-27.85-9.62,133.65,133.65,0,0,1-14-7.56,143.1,143.1,0,0,1-16.21-11.66,135,135,0,0,1-11.67-11c-2.15-2.25-4.16-4.66-6.11-7.09a123.85,123.85,0,0,1-10.52-15.17c-1.8-3.1-3.52-6.23-5.07-9.46A128.79,128.79,0,0,1,643.95,411c-1.31-4.21-2.16-8.51-3-12.8-2-9.63-2.23-19.37-1.78-29.14a81.32,81.32,0,0,1,1.26-11.76c.88-4.5,1.65-9,3-13.45a138.63,138.63,0,0,1,5.89-16.2A119.22,119.22,0,0,1,655,316.38,125.25,125.25,0,0,1,663.87,303a123.08,123.08,0,0,1,8.79-10.41A137,137,0,0,1,691.51,276a138.6,138.6,0,0,1,41.56-20.65,144.29,144.29,0,0,1,48.34-6.13,150.67,150.67,0,0,1,16.29,1.58,2.65,2.65,0,0,0,1.34,0c-.34-.59-1-.43-1.48-.51a143.27,143.27,0,0,0-20-1.64c-2.26,0-1.95.31-2-2.06,0-1.21,0-2.43,0-3.64s0-1.27,1.21-1.28c3.29,0,6.58.16,9.86.39a149,149,0,0,1,17.71,2.33,152.56,152.56,0,0,1,21.92,5.92,147.32,147.32,0,0,1,19.43,8.43,147.37,147.37,0,0,1,26.72,18c2.43,2,4.77,4.21,7.06,6.43A159.68,159.68,0,0,1,890.4,295c1.1,1.32,2.17,2.67,3.17,4.07,2.76,3.86,5.49,7.73,7.9,11.84,2.11,3.62,4.11,7.29,5.91,11.08a141.19,141.19,0,0,1,6,15c1.27,3.74,2.16,7.57,3.11,11.39A118,118,0,0,1,919.68,377,119.8,119.8,0,0,1,917.08,402.48Z" transform="translate(-630.57 -241.23)"/><g class="cls-4"><path class="cls-2" d="M910.59,359.35a114.1,114.1,0,0,0-3.17-15.1c-1-3.13-1.83-6.28-3-9.35a134.11,134.11,0,0,0-6-13.55c-1.83-3.54-3.81-7-6-10.34a124.74,124.74,0,0,0-8.84-12.09,128.69,128.69,0,0,0-9-9.84,131.35,131.35,0,0,0-11.83-10.4,137.63,137.63,0,0,0-15-10.19,139.87,139.87,0,0,0-17.62-8.7,142.87,142.87,0,0,0-27.22-8.09c-1.2-.23-2.48-.12-3.6-.77l-.29-.08a2.65,2.65,0,0,1-1.34,0,150.67,150.67,0,0,0-16.29-1.58,144.29,144.29,0,0,0-48.34,6.13A138.6,138.6,0,0,0,691.51,276a137,137,0,0,0-18.85,16.59A123.08,123.08,0,0,0,663.87,303,125.25,125.25,0,0,0,655,316.38a119.22,119.22,0,0,0-5.77,11.32,138.63,138.63,0,0,0-5.89,16.2c-1.32,4.4-2.09,9-3,13.45a81.32,81.32,0,0,0-1.26,11.76c-.45,9.77-.22,19.51,1.78,29.14.89,4.29,1.74,8.59,3,12.8a128.79,128.79,0,0,0,6.83,17.61c1.55,3.23,3.27,6.36,5.07,9.46a123.85,123.85,0,0,0,10.52,15.17c1.95,2.43,4,4.84,6.11,7.09a135,135,0,0,0,11.67,11,143.1,143.1,0,0,0,16.21,11.66,133.65,133.65,0,0,0,14,7.56,142.24,142.24,0,0,0,27.85,9.62A147.29,147.29,0,0,0,771.46,504a146,146,0,0,0,46.33-6.25A139.81,139.81,0,0,0,833.25,492a136.07,136.07,0,0,0,20.1-10.83c3.3-2.15,6.49-4.44,9.61-6.87a130.85,130.85,0,0,0,14.25-12.89c2.27-2.38,4.42-4.86,6.53-7.37a124.62,124.62,0,0,0,9.81-13.62,111.71,111.71,0,0,0,5.63-10,125.09,125.09,0,0,0,6.1-14.49c1-3,1.91-6,2.75-9a145.2,145.2,0,0,0,3-15.61,71.24,71.24,0,0,0,.76-9.79v0c0-.5.09-1,.09-1.48A112.11,112.11,0,0,0,910.59,359.35Zm-240,27.28c-.13-10.77-.63-21.53-.63-32.31V354c0-1.65,0-1.65-1.71-1.49l-3.47.32a1.66,1.66,0,0,1-.41-.11c2.25-6.58,4.75-13,7.26-19.75.83.9,1.58,1.65,2.26,2.44,3.57,4.13,7.12,8.27,10.69,12.39,1.22,1.41,2.44,2.82,3.73,4.17a2.3,2.3,0,0,1,.48,1.83V373.7c0,3,0,6.07,0,9.1a4,4,0,0,1-.67,2.58,3.86,3.86,0,0,0-.41.81c-1.65,3.73-3.26,7.49-4.95,11.2-.73,1.61-1.52,3.19-2.19,4.82a2.89,2.89,0,0,1-.44.53c-.87-1.25-1.8-2.32-1.75-3.94,0-1.26-.21-2.52-.22-3.78a2,2,0,0,0-.92-1.78,2,2,0,0,1-1-2c.07-.85,0-1.72,0-2.57s-.29-1-1-.93c-1.21,0-2.43,0-3.64,0S670.61,387.69,670.59,386.63Zm64,69.74H710.46c-1.56,0-1.55,0-2.08-1.37-1.17-3-2.31-6-3.53-9a2.49,2.49,0,0,1,.13-2.41c2.33-4.07,4.6-8.17,6.92-12.25a2.23,2.23,0,0,0,.27-1.14c0-.66,0-1.32,0-2,0-1.42.35-3-.17-4.2-.63-1.47-2-2.63-3.06-3.91-1.78-2.13-1.81-1.48,0-3.73,1.21-1.49,2.4-3,3.59-4.5l6.11-7.71a4.66,4.66,0,0,1,.42-.37c1,1.78,2,3.43,3,5.09,2.31,4,4.59,8.07,6.93,12.07a2.21,2.21,0,0,1,.07,2.37c-2.64,5.49-5.19,11-7.85,16.52-.8,1.64-1.6,3.26-2.35,4.92-.16.36-.49.72-.28,1.12.79,1.49,1,3.3,2.66,4.3a2.8,2.8,0,0,0,1.37.51c4.47.18,8.79,1.3,13.16,2.06,1.14.2,1.14.21,1.17,1.32C736.95,456.37,736.95,456.37,734.59,456.37Zm103.33-11.06c-1.39,3.3-2.75,6.61-3.93,10a1.42,1.42,0,0,1-1.56,1.09c-6.67,0-13.35,0-20,0-1.28,0-1.29,0-1.3-1.26,0-1.56,0-3.13,0-4.7,0-1.15,0-1.18,1.2-1.19,3,0,6,0,8.95,0,1.31,0,1.16.22,1.88-1.2a6.41,6.41,0,0,0-.12-6.37c-2.44-4.81-4.56-9.78-6.9-14.63-.79-1.64-1.52-3.3-2.31-4.93a1.79,1.79,0,0,1,.06-1.95c2.75-4.46,5.45-9,8.16-13.44a26.09,26.09,0,0,1,1.73-2.85c1.75,1.62,2.92,3.65,4.4,5.44,2.25,2.7,4.3,5.57,6.48,8.33.47.59.36.92-.08,1.39-1,1.1-2,2.25-3.08,3.34a2,2,0,0,0-.58,1.48c0,1.82,0,3.64,0,5.46a2.71,2.71,0,0,0,.3,1.31c.72,1.39,1.38,2.81,2.11,4.19,1.46,2.77,2.92,5.53,4.43,8.26A2.38,2.38,0,0,1,837.92,445.31Zm34.4-4.61a15.88,15.88,0,0,0-.83,1.78l-4.82,11.61c-1,2.29-1,2.28-3.52,2.28H848.42c-1.25,0-1.26,0-1.29-1.25s0-2.22,0-3.34,0-1.14,1.21-1.15q2.43,0,4.86,0a.83.83,0,0,0,.95-.68c.74-2.05,1.05-4.21,1.65-6.29.18-.6-.09-.93-.56-1.25-2.16-1.49-4.3-3-6.45-4.52l-7.34-5.1c-1.36-1-2.7-2-4.08-2.89a1,1,0,0,1-.41-1.46c1.5-3.37,2.88-6.78,4.36-10.15a2,2,0,0,0-.23-2.31c-3.61-4.61-7.17-9.26-10.73-13.91-1.08-1.4-2.12-2.83-3.2-4.23-2-2.56-3.9-5.15-5.91-7.68-1-1.26-1-1.29.19-2.48a7.18,7.18,0,0,0,1.87-2.54c-.6.29-1.22.55-1.81.88a148.65,148.65,0,0,1-15.25,7.38,1.31,1.31,0,0,0-1,1.46q.67,25,1.3,49.92c0,1.41.05,1.43-1.36,1.75q-12.83,3-25.68,5.91c-1.41.33-2.84.59-4.24,1a5.29,5.29,0,0,1-2.82,0c-6-1.5-12-3-18.08-4.43L744,446.44c-1.07-.26-1.09-.26-1.07-1.38.16-7.49.34-15,.49-22.46q.26-13.43.49-26.86c0-1.19,0-1.21-1.15-1.52-3.46-.92-6.92-1.85-10.4-2.71a19.7,19.7,0,0,1-3.64-1.44,62.24,62.24,0,0,1-9.71-6.41c-1.36-1-1-1.2-2.43.12-.29.28-.62.51-1.12.91l7.24,4.19c-.56.77-1,1.47-1.55,2.15-1.46,1.93-2.95,3.84-4.41,5.77l-11.13,14.74c-1.49,2-2.93,4-4.44,6a1.51,1.51,0,0,0-.14,1.78c1.5,3.2,2.95,6.42,4.41,9.63.55,1.2.55,1.23-.61,2-4.68,2.9-9.37,5.77-14.06,8.66-1.59,1-3.16,2-4.75,3-.45.28-.64.58-.38,1.11,1,2.09,1.75,4.3,2.88,6.34a1.62,1.62,0,0,0,1.25.93q5.14.91,10.29,1.87c.3,0,.59.11.89.18a.47.47,0,0,1,.4.66c-.23.78-.45,1.56-.69,2.33a.65.65,0,0,1-.71.45c-.25,0-.51,0-.76,0h-22c-1.4,0-1.39,0-1.75-1.42-1.14-4.6-2.3-9.2-3.45-13.8-.41-1.63-.38-1.6,1-2.56,4.85-3.37,9.68-6.78,14.54-10.13.7-.48.68-.86.41-1.57-.7-1.84-1.25-3.73-1.91-5.59-.9-2.56-1.9-5.1-2.75-7.69a3.33,3.33,0,0,1,.09-2.71c2.47-5.19,4.87-10.42,7.31-15.63,1.48-3.14,3-6.27,4.52-9.4a4.36,4.36,0,0,0,.42-2.2c-.26-5.76-.46-11.52-.73-17.28a2.75,2.75,0,0,1,.91-2.42,18.7,18.7,0,0,0,1.6-1.61c.35-.39.85-.7,1-1.38-1.53-.29-3,0-4.62-.26l4.65-8c.27-.48.49-1,.73-1.48l-.4-.33A21.64,21.64,0,0,1,695,353c.17-12.47.33-24.72.5-37.23a58.55,58.55,0,0,1,4.55,5.51,29.25,29.25,0,0,0,.84-4.12c.1-.41-.12-1,.5-1.14a1.31,1.31,0,0,1,1.58.55c.22.34.5.63.72,1,.59.88,1.18,1.77,1.73,2.67a2.82,2.82,0,0,0,2.82,1.54c3.13-.14,6.27,0,9.41-.06a2.2,2.2,0,0,1,1.87.75c.88,1,2.09,1.72,3.09,3.08a13.19,13.19,0,0,0-1.82,0c-.54.09-1.55-.44-1.52.56s1,.45,1.6.51a17.09,17.09,0,0,0,2.58,0,8.64,8.64,0,0,1,3.27.49q7.89,2.67,15.79,5.31c.23.08.5.09.69.43-.48,1.16-1.38,2.16-1.91,3.33-.72,1.6-1.81,1.91-3.43,1.92-5.82,0-11.63.23-17.45.37-.41,0-.81,0-1.21.06s-.62.25-.6.67,0,1.12,0,1.67c0,4.36,0,8.71,0,13.06a5.2,5.2,0,0,0,.5,2.33c2.42,5.27,4.73,10.6,7.26,15.82,1.26,2.58,2.2,5.31,3.66,7.8a1.83,1.83,0,0,0,.92.92,113.37,113.37,0,0,0,13.1,4c.08-2.35.14-4.62.22-6.88.52-14.77.71-29.54,1-44.31,0-1.45,0-1.46,1.39-1.8,3.34-.83,6.66-1.68,10-2.44.86-.2,1.14-.53,1.12-1.41-.07-2.17.09-4.36-.05-6.52A20,20,0,0,1,759,313.2c1-2.86,1.71-5.81,2.59-8.7,1.14-3.77,2.15-7.58,3.36-11.32,1-3.22,1.8-6.52,2.86-9.73,1.12-3.4,1.91-6.91,3.05-10.3s1.87-6.6,2.91-9.87c.44-1.37.92-2.73,1.4-4.17.66.36.61.94.73,1.38,1.34,4.81,2.56,9.66,4,14.45,1.05,3.53,1.83,7.13,2.92,10.65s1.85,7.13,2.94,10.65,1.92,7.43,3.06,11.09c.92,2.94,1.62,5.94,2.46,8.9a9.38,9.38,0,0,1,.36,2.69q0,4.62,0,9.26c0,1.44,0,1.45,1.33,1.86l9.27,2.83c1.38.43,1.37.45,1.41,1.85.48,15.52,1,31,1.29,46.58a1.34,1.34,0,0,0,.19,1,19.4,19.4,0,0,0,5.55-2.07c1.57-.82,3.07-1.76,4.63-2.59a2.12,2.12,0,0,0,1.11-1.32c1.56-4.69,3.16-9.37,4.76-14,.39-1.14.85-2.26,1.24-3.4a.82.82,0,0,1,.87-.67h1.37c.25,0,.52,0,.53-.38s0-.6-.32-.59c-1.29.08-1-.78-.92-1.49s.19-1.31.24-2,.4-1.5-.7-1.84c-.37-.11-.36-.69-.43-1.08-.58-3.28-1.54-6.48-2-9.79-.2-1.33-.26-1.35-1.63-.93a59.09,59.09,0,0,1-8.43,1.8c-1.57.23-1.56.24-1.93-1.26-.72-2.94-1.43-5.88-2.21-8.81-.16-.6.06-.74.52-.79s1.21-.09,1.81-.13a90.89,90.89,0,0,0,9.17-1.2c1.41-.23,2.41-1.24,3.67-1.74,0-.11-.05-.26-.08-.26-1.37-.14-1.39-.14-1.38-1.44a4.54,4.54,0,0,1,.12-1.8,2.29,2.29,0,0,1,2.43-1.38c1.82.11,3.64.21,5.45.41,1.16.12,1.85-.69,2.72-1.14.39-.2.22-.74.25-1.13.12-2,.27-4,.33-6.06,0-.79.3-1.12,1.08-1.06a4.61,4.61,0,0,0,.91,0c2-.18,3.9,0,5.46,1.56a3.15,3.15,0,0,0,2.82.72c1.2-.18,2.41-.23,3.62-.35a1.42,1.42,0,0,1,1.25.35c2.92,2.8,5.86,5.57,8.79,8.35a2.84,2.84,0,0,1,.24.36c-.18.56-.66.39-1,.44-.81.1-1.61.15-2.42.25-1,.13-1.09.22-1,1.2a2.12,2.12,0,0,0,.19.72c.83,1.56,1.6,3.16,2.53,4.66s1.84,3.36,2.76,5a1.51,1.51,0,0,1,0,.53,5.52,5.52,0,0,1-1.88-.46c-.72-.22-1,.23-1.26.76s-.24.94.32,1.25a5.12,5.12,0,0,1,2.77,5.47c-.23,2.56,0,5.16,0,7.74v1.53c-1.34-.78-1.85-2-2.72-2.84s-1.58-1.83-2.34-2.73c-.46,0-.64.31-.89.53a.71.71,0,0,0-.05,1.16c1.41,1.46,2.3,3.32,3.67,4.82.7.76.62.85-.14,1.59-2.31,2.24-4.6,4.49-6.9,6.75-1.21,1.19-2.39,2.41-3.61,3.59a1.25,1.25,0,0,0-.39,1.58c1.72,4.36,3.28,8.79,5.09,13.11.31.75.54,1.53.82,2.28,1.48,3.92,2.92,7.86,4.45,11.75,2,5.12,4,10.24,5.88,15.41a6.8,6.8,0,0,0,.52,1.09,1.5,1.5,0,0,1,.06,1.58,25.51,25.51,0,0,0-1.4,4q-1.71,5-3.41,10c-.4,1.21-.39,1.24.7,1.9l15.47,9.26C872.82,439.67,872.87,439.74,872.32,440.7Zm10.21-63a7.58,7.58,0,0,1-2-1.9c-2.6-3-5.14-6.1-7.71-9.15-1.18-1.39-2.34-2.79-3.55-4.15-.68-.75-.73-.72-1.4,0-2.7,2.71-5.39,5.46-8.14,8.13a1.8,1.8,0,0,0-.47,2.25c2.28,6.14,4.51,12.3,6.61,18.51a5.57,5.57,0,0,0,.38.82,3.64,3.64,0,0,1,.23,3.2c-1.08,3-1.67,6-2.5,9-.13.48-.29,1-.42,1.42-.6,0-.53-.46-.63-.74-1.64-4.45-3.23-8.92-4.87-13.37q-3.21-8.73-6.46-17.44c-.37-1-.77-2-1.18-2.94a1.33,1.33,0,0,1,.32-1.63c3.33-3.44,6.69-6.86,9.92-10.39,2.44-2.69,5-5.24,7.46-7.92,2.07-2.28,4.23-4.47,6.43-6.78.37.68.74,1.27,1,1.91,1.59,3.71,3.16,7.43,4.75,11.13.57,1.35,1.19,2.67,1.78,4a4,4,0,0,1,.4,1.6C882.52,368,882.53,372.77,882.53,377.7Z" transform="translate(-630.57 -241.23)"/></g><path class="cls-5" d="M919.68,377a126.79,126.79,0,0,1-5.56,37.05,148.17,148.17,0,0,1-5.83,15.27,125.93,125.93,0,0,1-5.9,11.43,135.26,135.26,0,0,1-8.87,13.37,138.82,138.82,0,0,1-11.87,13.76,140.46,140.46,0,0,1-14.76,13,145.35,145.35,0,0,1-23.75,14.81,147.8,147.8,0,0,1-25,9.71,155.68,155.68,0,0,1-18.61,4.13,152.2,152.2,0,0,1-22,1.87c-.31,0-.61,0-.91,0-.68.06-1-.15-1-.92,0-1.67.06-3.34,0-5,0-.84.34-1,1.07-1,3.19-.09,6.37-.15,9.56-.38a146.3,146.3,0,0,0,22.9-3.51A140.77,140.77,0,0,0,840,489.44a137.87,137.87,0,0,0,34.65-24.72q4.65-4.57,8.83-9.57a125.72,125.72,0,0,0,9-12.17q3.15-4.83,5.83-9.92a132.73,132.73,0,0,0,6.18-13.64c1.13-2.87,2-5.83,2.94-8.75a111.29,111.29,0,0,0,3.19-13.86,115.53,115.53,0,0,0,1.49-28.1,77.35,77.35,0,0,0-1-10,141,141,0,0,0-3-14.22c-.85-2.91-1.73-5.81-2.76-8.66a127.89,127.89,0,0,0-6.06-14,110.88,110.88,0,0,0-5.69-10,127.54,127.54,0,0,0-9.79-13.45c-2.23-2.63-4.48-5.21-6.88-7.68A132.72,132.72,0,0,0,863,278.3q-4.62-3.59-9.5-6.78A136.87,136.87,0,0,0,836.3,262a145.43,145.43,0,0,0-16.22-6.36,147.42,147.42,0,0,0-19-4.73,2.84,2.84,0,0,0-1.8,0l-.29-.08c-.34-.59-1-.43-1.48-.51a143.27,143.27,0,0,0-20-1.64c-2.26,0-1.95.31-2-2.06,0-1.21,0-2.43,0-3.64s0-1.27,1.21-1.28c3.29,0,6.58.16,9.86.39a149,149,0,0,1,17.71,2.33,152.56,152.56,0,0,1,21.92,5.92,147.32,147.32,0,0,1,19.43,8.43,147.37,147.37,0,0,1,26.72,18c2.43,2,4.77,4.21,7.06,6.43A159.68,159.68,0,0,1,890.4,295c1.1,1.32,2.17,2.67,3.17,4.07,2.76,3.86,5.49,7.73,7.9,11.84,2.11,3.62,4.11,7.29,5.91,11.08a141.19,141.19,0,0,1,6,15c1.27,3.74,2.16,7.57,3.11,11.39A118,118,0,0,1,919.68,377Z" transform="translate(-630.57 -241.23)"/><path class="cls-3" d="M871.85,439.09l-15.47-9.26c-1.09-.66-1.1-.69-.7-1.9q1.7-5,3.41-10a25.51,25.51,0,0,1,1.4-4,1.5,1.5,0,0,0-.06-1.58,6.8,6.8,0,0,1-.52-1.09C858,406.07,856,401,854,395.83c-1.53-3.89-3-7.83-4.45-11.75-.28-.75-.51-1.53-.82-2.28-1.81-4.32-3.37-8.75-5.09-13.11a1.25,1.25,0,0,1,.39-1.58c1.22-1.18,2.4-2.4,3.61-3.59,2.3-2.26,4.59-4.51,6.9-6.75.76-.74.84-.83.14-1.59-1.37-1.5-2.26-3.36-3.67-4.82a.71.71,0,0,1,.05-1.16c.25-.22.43-.57.89-.53.76.9,1.48,1.89,2.34,2.73s1.38,2.06,2.72,2.84v-1.53c0-2.58-.22-5.18,0-7.74a5.12,5.12,0,0,0-2.77-5.47c-.56-.31-.61-.69-.32-1.25s.54-1,1.26-.76a5.52,5.52,0,0,0,1.88.46,1.51,1.51,0,0,0,0-.53c-.92-1.69-1.76-3.41-2.76-5s-1.7-3.1-2.53-4.66a2.12,2.12,0,0,1-.19-.72c-.11-1,0-1.07,1-1.2.81-.1,1.61-.15,2.42-.25.36,0,.84.12,1-.44a2.84,2.84,0,0,0-.24-.36c-2.93-2.78-5.87-5.55-8.79-8.35a1.42,1.42,0,0,0-1.25-.35c-1.21.12-2.42.17-3.62.35a3.15,3.15,0,0,1-2.82-.72c-1.56-1.53-3.44-1.74-5.46-1.56a4.61,4.61,0,0,1-.91,0c-.78-.06-1.05.27-1.08,1.06-.06,2-.21,4-.33,6.06,0,.39.14.93-.25,1.13-.87.45-1.56,1.26-2.72,1.14-1.81-.2-3.63-.3-5.45-.41a2.29,2.29,0,0,0-2.43,1.38,4.54,4.54,0,0,0-.12,1.8c0,1.3,0,1.3,1.38,1.44,0,0,.05.15.08.26-1.26.5-2.26,1.51-3.67,1.74a90.89,90.89,0,0,1-9.17,1.2c-.6,0-1.21.07-1.81.13s-.68.19-.52.79c.78,2.93,1.49,5.87,2.21,8.81.37,1.5.36,1.49,1.93,1.26a59.09,59.09,0,0,0,8.43-1.8c1.37-.42,1.43-.4,1.63.93.48,3.31,1.44,6.51,2,9.79.07.39.06,1,.43,1.08,1.1.34.76,1.13.7,1.84s-.18,1.3-.24,2-.37,1.57.92,1.49c.29,0,.32.34.32.59s-.28.37-.53.38h-1.37a.82.82,0,0,0-.87.67c-.39,1.14-.85,2.26-1.24,3.4-1.6,4.68-3.2,9.36-4.76,14a2.12,2.12,0,0,1-1.11,1.32c-1.56.83-3.06,1.77-4.63,2.59a19.4,19.4,0,0,1-5.55,2.07,1.34,1.34,0,0,1-.19-1c-.28-15.53-.81-31.06-1.29-46.58,0-1.4,0-1.42-1.41-1.85L792.95,330c-1.33-.41-1.33-.42-1.33-1.86q0-4.64,0-9.26a9.38,9.38,0,0,0-.36-2.69c-.84-3-1.54-6-2.46-8.9-1.14-3.66-1.91-7.42-3.06-11.09s-1.85-7.13-2.94-10.65-1.87-7.12-2.92-10.65c-1.42-4.79-2.64-9.64-4-14.45-.12-.44-.07-1-.73-1.38-.48,1.44-1,2.8-1.4,4.17-1,3.27-1.81,6.62-2.91,9.87s-1.93,6.9-3.05,10.3c-1.06,3.21-1.82,6.51-2.86,9.73-1.21,3.74-2.22,7.55-3.36,11.32-.88,2.89-1.57,5.84-2.59,8.7a20,20,0,0,0-1.28,8.17c.14,2.16,0,4.35.05,6.52,0,.88-.26,1.21-1.12,1.41-3.35.76-6.67,1.61-10,2.44-1.37.34-1.37.35-1.39,1.8-.29,14.77-.48,29.54-1,44.31-.08,2.26-.14,4.53-.22,6.88a113.37,113.37,0,0,1-13.1-4,1.83,1.83,0,0,1-.92-.92c-1.46-2.49-2.4-5.22-3.66-7.8-2.53-5.22-4.84-10.55-7.26-15.82a5.2,5.2,0,0,1-.5-2.33c0-4.35,0-8.7,0-13.06,0-.55,0-1.11,0-1.67s.15-.66.6-.67.8-.05,1.21-.06c5.82-.14,11.63-.33,17.45-.37,1.62,0,2.71-.32,3.43-1.92.53-1.17,1.43-2.17,1.91-3.33-.19-.34-.46-.35-.69-.43q-7.89-2.65-15.79-5.31a8.64,8.64,0,0,0-3.27-.49,17.09,17.09,0,0,1-2.58,0c-.56-.06-1.56.48-1.6-.51s1-.47,1.52-.56a13.19,13.19,0,0,1,1.82,0c-1-1.36-2.21-2-3.09-3.08a2.2,2.2,0,0,0-1.87-.75c-3.14,0-6.28-.08-9.41.06a2.82,2.82,0,0,1-2.82-1.54c-.55-.9-1.14-1.79-1.73-2.67-.22-.34-.5-.63-.72-1a1.31,1.31,0,0,0-1.58-.55c-.62.15-.4.73-.5,1.14a29.25,29.25,0,0,1-.84,4.12,58.55,58.55,0,0,0-4.55-5.51c-.17,12.51-.33,24.76-.5,37.23a21.64,21.64,0,0,0,3.67-2.09l.87-.79a1.52,1.52,0,0,1-.47,1.12c-.24.49-.46,1-.73,1.48l-4.65,8c1.58.21,3.09,0,4.62.26-.14.68-.64,1-1,1.38a18.7,18.7,0,0,1-1.6,1.61,2.75,2.75,0,0,0-.91,2.42c.27,5.76.47,11.52.73,17.28a4.36,4.36,0,0,1-.42,2.2c-1.51,3.13-3,6.26-4.52,9.4-2.44,5.21-4.84,10.44-7.31,15.63a3.33,3.33,0,0,0-.09,2.71c.85,2.59,1.85,5.13,2.75,7.69.66,1.86,1.21,3.75,1.91,5.59.27.71.29,1.09-.41,1.57-4.86,3.35-9.69,6.76-14.54,10.13-1.38,1-1.41.93-1,2.56,1.15,4.6,2.31,9.2,3.45,13.8.36,1.41.35,1.42,1.75,1.42h22c.25,0,.51,0,.76,0a.65.65,0,0,0,.71-.45c.24-.77.46-1.55.69-2.33a.47.47,0,0,0-.4-.66c-.3-.07-.59-.13-.89-.18q-5.14-.95-10.29-1.87a1.62,1.62,0,0,1-1.25-.93c-1.13-2-1.87-4.25-2.88-6.34-.26-.53-.07-.83.38-1.11,1.59-1,3.16-2,4.75-3,4.69-2.89,9.38-5.76,14.06-8.66,1.16-.72,1.16-.75.61-2-1.46-3.21-2.91-6.43-4.41-9.63a1.51,1.51,0,0,1,.14-1.78c1.51-2,3-4,4.44-6L716.7,396.8c1.46-1.93,2.95-3.84,4.41-5.77.51-.68,1-1.38,1.55-2.15l-7.24-4.19c.5-.4.83-.63,1.12-.91,1.42-1.32,1.07-1.14,2.43-.12a62.24,62.24,0,0,0,9.71,6.41,19.7,19.7,0,0,0,3.64,1.44c3.48.86,6.94,1.79,10.4,2.71,1.17.31,1.18.33,1.15,1.52q-.24,13.43-.49,26.86c-.15,7.49-.33,15-.49,22.46,0,1.12,0,1.12,1.07,1.38l10.4,2.53c6,1.47,12.06,2.93,18.08,4.43a5.29,5.29,0,0,0,2.82,0c1.4-.4,2.83-.66,4.24-1q12.84-3,25.68-5.91c1.41-.32,1.39-.34,1.36-1.75q-.65-25-1.3-49.92a1.31,1.31,0,0,1,1-1.46A148.65,148.65,0,0,0,821.46,386c.59-.33,1.21-.59,1.81-.88a7.18,7.18,0,0,1-1.87,2.54c-1.18,1.19-1.19,1.22-.19,2.48,2,2.53,3.94,5.12,5.91,7.68,1.08,1.4,2.12,2.83,3.2,4.23,3.56,4.65,7.12,9.3,10.73,13.91a2,2,0,0,1,.23,2.31c-1.48,3.37-2.86,6.78-4.36,10.15a1,1,0,0,0,.41,1.46c1.38.94,2.72,1.93,4.08,2.89l7.34,5.1c2.15,1.51,4.29,3,6.45,4.52.47.32.74.65.56,1.25-.6,2.08-.91,4.24-1.65,6.29a.83.83,0,0,1-.95.68q-2.43,0-4.86,0c-1.19,0-1.2,0-1.21,1.15s0,2.23,0,3.34,0,1.25,1.29,1.25h14.73c2.54,0,2.56,0,3.52-2.28l4.82-11.61a15.88,15.88,0,0,1,.83-1.78C872.87,439.74,872.82,439.67,871.85,439.09ZM759,314.89c1.08-2.85,1.71-5.82,2.59-8.71,1.14-3.77,2.15-7.58,3.37-11.32,1-3.22,1.84-6.51,2.84-9.74q3.16-10.2,6.06-20.47a8.28,8.28,0,0,1,1.15-2.45c0,.36.06.73.06,1.1q.08,23.84.13,47.66c0,1.49,0,1.49-1.47,1.92q-6.77,2-13.53,3.95a6.54,6.54,0,0,1-1.63.32A4.27,4.27,0,0,1,759,314.89Zm.09,2.74c4.9-1.37,9.78-2.81,14.67-4.22a2.1,2.1,0,0,1,1.16-.22c.23.44.07.91.13,1.35s-.25.7-.69.8L758.47,319C758.31,318.33,758.26,317.88,759.13,317.63Zm-.84,2.61c0-.71.51-.73,1-.84q6.42-1.48,12.82-3l2.21-.53c.55-.13.87,0,.86.65,0,2.58-.08,5.16-.07,7.73,0,.75-.55.8-1,.91-1.56.41-3.14.73-4.71,1.1l-11.15,2.66Zm-12.55,22c0-2.88.13-5.76.12-8.64,0-.89.29-1.22,1.13-1.42q12.58-3,25.15-6.07a4,4,0,0,0,2.11-.73c.36-.35.57.06.7.25a1.43,1.43,0,0,1,.08.73c0,3.29,0,6.58,0,9.87a.87.87,0,0,1-.81,1q-14,3.15-27.91,6.35a1.66,1.66,0,0,1-.44,0A2.22,2.22,0,0,1,745.74,342.29Zm-1,40.19q.38-18.2.78-36.39c0-1.75,0-1.73,1.74-2.12L774,337.86c.29-.07.59-.12.94-.19a2.4,2.4,0,0,1,.22,1.47q.07,16.92.13,33.83c0,2,0,3.94,0,5.91,0,1.2-.11,1.39-1.28,1.66-2.8.64-5.53,1.53-8.29,2.32l-19.49,5.59a2.4,2.4,0,0,1-1.5.23C744.74,386.62,744.7,384.55,744.75,382.48Zm-.2,8.06c-.13-.87.3-1.25,1.12-1.47,2.57-.71,5.14-1.47,7.71-2.21l19.33-5.57c.83-.24,1.57-.84,2.59-.59.22,2.8.23,2.82-2.3,3.52q-14,3.89-28,7.74a1.8,1.8,0,0,1-.33,0C744.27,391.52,744.61,391,744.55,390.54Zm-1.69,3.28c-2.84-.73-5.65-1.57-8.51-2.21-4.61-1-8.49-3.39-12.2-6.16-1.25-.94-2.53-1.84-3.76-2.81a.85.85,0,0,0-1.4.12c-.63.72-1.29,1.42-2,2.21l6.88,4a6,6,0,0,1-1.46,2.12c-1.21,1.62-2.41,3.25-3.62,4.86q-5.61,7.44-11.22,14.87c-1.64,2.19-3.22,4.41-4.88,6.57a1.61,1.61,0,0,0-.17,1.91c1.47,3.11,2.88,6.24,4.3,9.36.58,1.28.58,1.31-.54,2-4.46,2.77-8.94,5.51-13.41,8.27-1.89,1.16-3.76,2.36-5.67,3.51-.46.27-.54.54-.29,1a68,68,0,0,1,2.87,6.34,2.37,2.37,0,0,0,2,1.6c3.15.5,6.27,1.13,9.39,1.72a5,5,0,0,1,1.64.44c-.05.29-.07.59-.15.88-.39,1.44-.46,1.49-2,1.49h-21.1a9.32,9.32,0,0,1-1.06,0,.76.76,0,0,1-.7-.68c-.84-4.83-2.23-9.53-3.45-14.27a1.43,1.43,0,0,1,.76-1.83c3.46-2.36,6.89-4.77,10.33-7.17,1.57-1.1,3.12-2.24,4.72-3.3.58-.38.75-.69.46-1.34-1.46-3.28-2.25-6.8-3.67-10.09-.6-1.39-1-2.87-1.48-4.3a1.76,1.76,0,0,1,.16-1.45q1.26-2.58,2.47-5.19,3.81-8.16,7.61-16.33c.45-1,.92-1.91,1.44-2.84a8.56,8.56,0,0,0,.88-5c-.31-5.31-.49-10.62-.75-15.92a2.07,2.07,0,0,1,.6-1.64c1-1,2-2,2.93-3.07a1.9,1.9,0,0,0,.62-1.06h-4.87c2.12-4.16,4.52-7.8,6.78-11.89a8,8,0,0,0-2.82,1.91,10.49,10.49,0,0,1-2.72,1.59c-.35-1.11,0-33.2.42-34.71,1.68,1.43,2.6,3.47,4.35,5,.27-1.8.51-3.38.77-5,.06-.38,0-.86.55-1s.59.27.82.54a34.07,34.07,0,0,1,2.65,3.88,2.53,2.53,0,0,0,2.46,1.33c3.23-.09,6.47,0,9.71,0a2.27,2.27,0,0,1,1.88.76c.56.63,1.23,1.18,1.92,1.83-.46.45-1,.23-1.53.27-1,.06-1,.07-1,1.06s0,1,1,1,2,0,3,0a10.73,10.73,0,0,1,4,.58c5.21,1.79,10.43,3.53,15.78,5.33-.69,1.58-1.83,2.83-2.58,4.3-.24.49-.79.36-1.23.37l-12.59.3c-2.33,0-4.66.09-7,.08-.76,0-1.06.21-1.05,1,0,5.21,0,10.42,0,15.63a2.88,2.88,0,0,0,.21,1.19c.7,1.57,1.29,3.19,2.09,4.71.62,1.16,1.13,2.36,1.68,3.55,2.39,5.23,4.79,10.47,7.15,15.71A2.69,2.69,0,0,0,731,381.3a117.63,117.63,0,0,0,11.29,3.47c2.14.58,1.86.15,1.84,2.37,0,1.92-.07,3.84-.1,5.76C744,394,743.89,394.08,742.86,393.82Zm31.39,44.79-29.38,6.78a2.44,2.44,0,0,1-1.34.09,3.43,3.43,0,0,1-.12-1.65c.22-11.89.48-23.77.67-35.66.08-4.76.19-9.51.4-14.26.06-1.37.07-1.39,1.36-1.75l22.5-6.2,6.68-1.82c.43.46.29.94.29,1.36q.06,25.81.1,51.62C775.41,438.34,775.39,438.34,774.25,438.61Zm9.76-61.3c-1.78-.19-3.1-.91-4.54-1.14-.33,0-.4-.23-.38-.51s0-.5,0-.76q.1-11.89.2-23.79a2.89,2.89,0,0,1,1.11-2.66,2,2,0,0,1,3.3,1,4.76,4.76,0,0,1,.31,1.79C784,359.86,784,368.5,784,377.31Zm8.81-3.35c0,1.91,0,3.83,0,6-1.62-.49-2.91-.9-4.21-1.26-.66-.18-.5-.66-.49-1.08,0-3,.08-6.07.13-9.1q.14-7.12.26-14.24a3.75,3.75,0,0,1,1-2.92,2,2,0,0,1,3.28.51,4.88,4.88,0,0,1,.46,2.5C793.09,360.92,792.94,367.44,792.82,374Zm7.61,8.45c-1.45-.45-2.79-.89-4.13-1.28a.66.66,0,0,1-.57-.74c0-.31,0-.61,0-.91q.09-11.54.19-23c0-.5,0-1,.09-1.51a2.37,2.37,0,0,1,1.11-1.73,1.66,1.66,0,0,1,2.56.61,4.27,4.27,0,0,1,.52,2q.17,13,.32,26.07A2.33,2.33,0,0,1,800.43,382.41Z" transform="translate(-630.57 -241.23)"/><path class="cls-3" d="M837.92,445.31c-1.39,3.3-2.75,6.61-3.93,10a1.42,1.42,0,0,1-1.56,1.09c-6.67,0-13.35,0-20,0-1.28,0-1.29,0-1.3-1.26,0-1.56,0-3.13,0-4.7,0-1.15,0-1.18,1.2-1.19,3,0,6,0,8.95,0,1.31,0,1.16.22,1.88-1.2a6.41,6.41,0,0,0-.12-6.37c-2.44-4.81-4.56-9.78-6.9-14.63-.79-1.64-1.52-3.3-2.31-4.93a1.79,1.79,0,0,1,.06-1.95c2.75-4.46,5.45-9,8.16-13.44a26.09,26.09,0,0,1,1.73-2.85c1.75,1.62,2.92,3.65,4.4,5.44,2.25,2.7,4.3,5.57,6.48,8.33.47.59.36.92-.08,1.39-1,1.1-2,2.25-3.08,3.34a2,2,0,0,0-.58,1.48c0,1.82,0,3.64,0,5.46a2.71,2.71,0,0,0,.3,1.31c.72,1.39,1.38,2.81,2.11,4.19,1.46,2.77,2.92,5.53,4.43,8.26A2.38,2.38,0,0,1,837.92,445.31Z" transform="translate(-630.57 -241.23)"/><path class="cls-3" d="M882.53,377.7a7.58,7.58,0,0,1-2-1.9c-2.6-3-5.14-6.1-7.71-9.15-1.18-1.39-2.34-2.79-3.55-4.15-.68-.75-.73-.72-1.4,0-2.7,2.71-5.39,5.46-8.14,8.13a1.8,1.8,0,0,0-.47,2.25c2.28,6.14,4.51,12.3,6.61,18.51a5.57,5.57,0,0,0,.38.82,3.64,3.64,0,0,1,.23,3.2c-1.08,3-1.67,6-2.5,9-.13.48-.29,1-.42,1.42-.6,0-.53-.46-.63-.74-1.64-4.45-3.23-8.92-4.87-13.37q-3.21-8.73-6.46-17.44c-.37-1-.77-2-1.18-2.94a1.33,1.33,0,0,1,.32-1.63c3.33-3.44,6.69-6.86,9.92-10.39,2.44-2.69,5-5.24,7.46-7.92,2.07-2.28,4.23-4.47,6.43-6.78.37.68.74,1.27,1,1.91,1.59,3.71,3.16,7.43,4.75,11.13.57,1.35,1.19,2.67,1.78,4a4,4,0,0,1,.4,1.6C882.52,368,882.53,372.77,882.53,377.7Z" transform="translate(-630.57 -241.23)"/><path class="cls-3" d="M688.79,373.7V353.82a2.3,2.3,0,0,0-.48-1.83c-1.29-1.35-2.51-2.76-3.73-4.17-3.57-4.12-7.12-8.26-10.69-12.39-.68-.79-1.43-1.54-2.26-2.44-2.51,6.7-5,13.17-7.26,19.75a1.66,1.66,0,0,0,.41.11l3.47-.32c1.69-.16,1.69-.16,1.71,1.49v.3c0,10.78.5,21.54.63,32.31,0,1.06,0,1.08,1.11,1.09s2.43,0,3.64,0c.69,0,1,.16,1,.93s0,1.72,0,2.57a2,2,0,0,0,1,2,2,2,0,0,1,.92,1.78c0,1.26.26,2.52.22,3.78-.05,1.62.88,2.69,1.75,3.94a2.89,2.89,0,0,0,.44-.53c.67-1.63,1.46-3.21,2.19-4.82,1.69-3.71,3.3-7.47,4.95-11.2a3.86,3.86,0,0,1,.41-.81,4,4,0,0,0,.67-2.58C688.78,379.77,688.79,376.73,688.79,373.7Zm-.5,9.34a3.66,3.66,0,0,1-.36,1.59c-1.73,3.86-3.42,7.74-5.14,11.6-.82,1.83-1.7,3.65-2.6,5.58a4.6,4.6,0,0,1-1.37-2.9c0-1.37-.22-2.73-.24-4.09a2,2,0,0,0-.9-1.79,1.91,1.91,0,0,1-.87-2c0-.8,0-1.62,0-2.43,0-1.73-.09-1.42-1.51-1.43l-2.89,0c-1.36,0-1.37,0-1.4-1.44,0-1.87-.05-3.74-.08-5.61q-.18-12.81-.37-25.63c0-2.78,0-2.77-2.74-2.45-.85.1-1.7.14-2.89.24l6.85-18.42c.93,1,1.69,1.8,2.41,2.63,2.55,2.94,5.05,5.92,7.62,8.84,2,2.23,3.95,4.45,5.87,6.73a2.33,2.33,0,0,1,.6,1.63Q688.28,368.4,688.29,383Z" transform="translate(-630.57 -241.23)"/><path class="cls-3" d="M736.91,454.08c0-1.11,0-1.12-1.17-1.32-4.37-.76-8.69-1.88-13.16-2.06a2.8,2.8,0,0,1-1.37-.51c-1.62-1-1.87-2.81-2.66-4.3-.21-.4.12-.76.28-1.12.75-1.66,1.55-3.28,2.35-4.92,2.66-5.48,5.21-11,7.85-16.52A2.21,2.21,0,0,0,729,421c-2.34-4-4.62-8-6.93-12.07-.95-1.66-1.92-3.31-3-5.09a4.66,4.66,0,0,0-.42.37l-6.11,7.71c-1.19,1.5-2.38,3-3.59,4.5-1.82,2.25-1.79,1.6,0,3.73,1.07,1.28,2.43,2.44,3.06,3.91.52,1.2.15,2.78.17,4.2,0,.65,0,1.31,0,2a2.23,2.23,0,0,1-.27,1.14c-2.32,4.08-4.59,8.18-6.92,12.25a2.49,2.49,0,0,0-.13,2.41c1.22,3,2.36,6,3.53,9,.53,1.36.52,1.37,2.08,1.37h24.13C736.95,456.37,736.95,456.37,736.91,454.08Zm-1.67,1.81c-8.24,0-16.48,0-24.72,0a1.45,1.45,0,0,1-1.62-1c-.07-.18-.2-.35-.27-.54-1.08-2.88-2.08-5.79-3.38-8.58a1.93,1.93,0,0,1,.15-2c2.26-3.93,4.49-7.89,6.72-11.83a3,3,0,0,0,.48-1.57c0-1.92,0-3.84,0-5.76a2.28,2.28,0,0,0-.76-1.73c-1.23-1.26-2.12-2.82-3.39-4.06-.59-.58-.11-1,.22-1.42l8.1-10.19c.69-.85,1.41-1.68,2.19-2.61.87,1.3,1.51,2.55,2.24,3.74,1.54,2.54,2.94,5.17,4.41,7.75.9,1.58,1.78,3.17,2.75,4.71a2.43,2.43,0,0,1,.12,2.65c-1.87,3.74-3.66,7.53-5.46,11.3-1.56,3.28-3.07,6.58-4.66,9.85a2.09,2.09,0,0,0,0,2.13c.43.74.69,1.58,1.13,2.31a3.78,3.78,0,0,0,3.23,2.14c4.37.14,8.58,1.27,12.85,2,.84.15.91.58.91,1.25C736.5,455.87,736.52,455.89,735.24,455.89Z" transform="translate(-630.57 -241.23)"/><path class="cls-5" d="M696.2,317.32c1.68,1.43,2.6,3.47,4.34,5,.28-1.8.51-3.38.77-5,.06-.37,0-.86.55-1s.6.27.83.54a33.88,33.88,0,0,1,2.65,3.88,2.53,2.53,0,0,0,2.46,1.33c3.24-.09,6.48,0,9.71,0a2.24,2.24,0,0,1,1.87.75c.57.64,1.23,1.19,1.92,1.83-.46.45-1,.23-1.53.27-1,.07-1,.07-1,1.06s0,1,1,1,2,0,3,0a10.75,10.75,0,0,1,4,.58c5.2,1.79,10.42,3.53,15.77,5.33-.69,1.58-1.83,2.83-2.58,4.3-.25.49-.79.36-1.23.37-4.2.1-8.4.21-12.59.3-2.33,0-4.65.09-7,.08-.76,0-1.06.21-1.06,1,0,5.21,0,10.42,0,15.63a2.84,2.84,0,0,0,.21,1.18c.7,1.57,1.29,3.19,2.09,4.71.61,1.16,1.13,2.37,1.68,3.56q3.59,7.85,7.15,15.71A2.67,2.67,0,0,0,731,381.3a118,118,0,0,0,11.29,3.47c2.14.58,1.86.15,1.84,2.37,0,1.92-.08,3.84-.1,5.76,0,1.07-.11,1.18-1.14.92-2.84-.73-5.65-1.57-8.51-2.21-4.61-1-8.5-3.39-12.2-6.17-1.25-.94-2.54-1.84-3.76-2.81a.86.86,0,0,0-1.4.12c-.63.73-1.29,1.42-2,2.22l6.88,4a6.06,6.06,0,0,1-1.46,2.13c-1.21,1.62-2.41,3.24-3.62,4.86q-5.61,7.44-11.22,14.87c-1.64,2.18-3.21,4.41-4.88,6.57a1.6,1.6,0,0,0-.16,1.91c1.46,3.1,2.88,6.23,4.3,9.36.58,1.28.58,1.31-.54,2q-6.7,4.15-13.41,8.27c-1.89,1.17-3.76,2.36-5.67,3.51-.46.27-.54.54-.29,1a67.79,67.79,0,0,1,2.87,6.34,2.39,2.39,0,0,0,2,1.6c3.14.5,6.26,1.13,9.39,1.72a5,5,0,0,1,1.63.43,7.87,7.87,0,0,1-.14.89c-.4,1.44-.46,1.49-2,1.49h-21.1a9.62,9.62,0,0,1-1.06,0,.75.75,0,0,1-.69-.68c-.84-4.83-2.23-9.53-3.45-14.26a1.43,1.43,0,0,1,.76-1.83c3.46-2.37,6.89-4.78,10.33-7.18,1.57-1.1,3.12-2.24,4.72-3.29.58-.38.75-.7.46-1.34-1.46-3.27-2.25-6.8-3.67-10.09-.6-1.39-1-2.87-1.48-4.29a1.78,1.78,0,0,1,.17-1.45q1.26-2.59,2.47-5.19,3.81-8.16,7.61-16.33c.45-1,.91-1.91,1.43-2.83a8.63,8.63,0,0,0,.89-5c-.31-5.3-.5-10.61-.76-15.92a2,2,0,0,1,.61-1.64c1-1,2-2,2.92-3.07a1.89,1.89,0,0,0,.63-1.06h-4.87c2.12-4.17,4.52-7.8,6.78-11.89a8,8,0,0,0-2.83,1.91,10,10,0,0,1-2.72,1.59C695.43,350.92,695.81,318.83,696.2,317.32Z" transform="translate(-630.57 -241.23)"/><path class="cls-5" d="M743.53,445.48a3.45,3.45,0,0,1-.11-1.64c.22-11.89.47-23.78.67-35.67.08-4.76.19-9.51.4-14.26.06-1.36.07-1.39,1.36-1.75l22.5-6.2,6.68-1.82c.43.46.29.93.29,1.36q.06,25.81.09,51.61c0,1.22,0,1.23-1.15,1.49l-29.39,6.78A2.46,2.46,0,0,1,743.53,445.48Z" transform="translate(-630.57 -241.23)"/><path class="cls-5" d="M744.74,388.68c0-2.06,0-4.13,0-6.19q.37-18.2.78-36.4c0-1.74,0-1.73,1.74-2.12L774,337.86c.29-.07.59-.11.94-.18a2.31,2.31,0,0,1,.22,1.47q.07,16.91.13,33.83c0,2,0,3.94,0,5.92,0,1.19-.12,1.38-1.29,1.65-2.8.64-5.53,1.53-8.29,2.33l-19.49,5.59A2.36,2.36,0,0,1,744.74,388.68Zm11.7-9c1.74-.38,3.5-.78,5.26-1.13.74-.15.93-.53.94-1.25q.23-11.91.52-23.82a4.94,4.94,0,0,0-.21-1.65,3.81,3.81,0,0,0-3.27-2.55c-1.33,0-2.29.75-2.9,2.27a6.6,6.6,0,0,0-.5,2.5c0,8,0,16.09,0,24.14A3,3,0,0,0,756.44,379.7Zm9.48-2.14c1.66-.35,3.22-.7,4.79-1s1.56-.31,1.57-1.82q0-11.6.08-23.2a8.91,8.91,0,0,0,0-1.21,3.25,3.25,0,0,0-2.92-2.83,2.84,2.84,0,0,0-2.93,2.54,8.33,8.33,0,0,0-.14,1.66q-.21,11.67-.41,23.35C765.9,375.81,765.91,376.61,765.91,377.56ZM747,381.71a39.75,39.75,0,0,0,4.38-.92c1.25-.25,1.25-.28,1.25-1.57q0-12.13,0-24.26a9,9,0,0,0,0-1.21,2.37,2.37,0,0,0-2.18-2.16c-2.25-.3-3.57.83-3.58,3.1q0,12.89-.06,25.77A2,2,0,0,0,747,381.71Z" transform="translate(-630.57 -241.23)"/><path class="cls-5" d="M758.61,317.15a4.21,4.21,0,0,1,.43-2.27c1.08-2.84,1.71-5.81,2.59-8.71,1.14-3.77,2.15-7.58,3.37-11.32,1-3.22,1.84-6.51,2.84-9.74q3.17-10.19,6.06-20.47a8.39,8.39,0,0,1,1.15-2.46c0,.37.06.74.06,1.1q.07,23.83.13,47.66c0,1.49,0,1.49-1.47,1.92q-6.76,2-13.53,4A7,7,0,0,1,758.61,317.15Z" transform="translate(-630.57 -241.23)"/><path class="cls-5" d="M745.88,343.63a2.2,2.2,0,0,1-.14-1.33c0-2.88.13-5.76.12-8.65,0-.88.29-1.21,1.13-1.41q12.59-3,25.15-6.07a4,4,0,0,0,2.11-.73c.36-.35.57.07.7.25a1.41,1.41,0,0,1,.08.73c0,3.29,0,6.58,0,9.86a.87.87,0,0,1-.81,1q-14,3.16-27.91,6.35A1.64,1.64,0,0,1,745.88,343.63Z" transform="translate(-630.57 -241.23)"/><path class="cls-5" d="M758.29,328.92c0-3,0-5.85,0-8.67,0-.72.52-.73,1-.85q6.42-1.48,12.83-3l2.21-.53c.55-.13.87,0,.86.65,0,2.58-.08,5.16-.07,7.73,0,.75-.55.8-1,.91-1.56.41-3.14.73-4.72,1.1Z" transform="translate(-630.57 -241.23)"/><g class="cls-6"><path class="cls-2" d="M792.82,380c-1.61-.49-2.9-.9-4.21-1.26-.66-.18-.5-.67-.49-1.09q.06-4.55.14-9.09.12-7.12.26-14.25a3.74,3.74,0,0,1,1-2.92,2,2,0,0,1,3.28.51,5,5,0,0,1,.46,2.5q-.21,9.77-.41,19.55C792.79,375.87,792.82,377.79,792.82,380Z" transform="translate(-630.57 -241.23)"/></g><g class="cls-7"><path class="cls-2" d="M784,377.31c-1.78-.19-3.1-.91-4.54-1.13-.33-.05-.4-.23-.38-.51s0-.51,0-.76q.1-11.9.2-23.8a2.89,2.89,0,0,1,1.11-2.66,2,2,0,0,1,3.3,1,4.88,4.88,0,0,1,.3,1.78C784,359.86,784,368.5,784,377.31Z" transform="translate(-630.57 -241.23)"/></g><g class="cls-8"><path class="cls-9" d="M800.43,382.41c-1.45-.45-2.78-.89-4.13-1.28a.66.66,0,0,1-.57-.74c0-.3,0-.61,0-.91q.09-11.52.19-23a12,12,0,0,1,.09-1.51,2.41,2.41,0,0,1,1.1-1.74,1.67,1.67,0,0,1,2.57.62,4.26,4.26,0,0,1,.52,2q.17,13,.32,26.08A3.6,3.6,0,0,1,800.43,382.41Z" transform="translate(-630.57 -241.23)"/></g><path class="cls-5" d="M775.3,380.7c.22,2.8.23,2.82-2.3,3.52L745,392a1.42,1.42,0,0,1-.33,0c-.4-.44-.05-1-.12-1.42-.12-.87.31-1.25,1.12-1.47,2.58-.7,5.14-1.47,7.71-2.21l19.34-5.57C773.54,381.05,774.28,380.45,775.3,380.7Z" transform="translate(-630.57 -241.23)"/><path class="cls-5" d="M758.47,319c-.15-.72-.21-1.17.66-1.41,4.9-1.37,9.78-2.82,14.67-4.22a2.14,2.14,0,0,1,1.16-.22c.23.44.08.91.13,1.35s-.25.7-.69.8Z" transform="translate(-630.57 -241.23)"/><path class="cls-2" d="M699.57,350.09a1.52,1.52,0,0,1-.47,1.12l-.4-.33Z" transform="translate(-630.57 -241.23)"/><path class="cls-5" d="M664.94,352.35l6.85-18.42c.93,1,1.7,1.8,2.42,2.63,2.54,2.94,5,5.92,7.62,8.83,2,2.23,4,4.46,5.87,6.73a2.33,2.33,0,0,1,.6,1.63q0,14.64,0,29.28a3.76,3.76,0,0,1-.36,1.59c-1.73,3.86-3.42,7.73-5.14,11.6-.82,1.84-1.7,3.65-2.6,5.59a4.63,4.63,0,0,1-1.36-2.91c0-1.36-.22-2.72-.24-4.09a1.94,1.94,0,0,0-.9-1.79,1.92,1.92,0,0,1-.87-2c0-.81,0-1.62,0-2.43,0-1.73-.09-1.42-1.52-1.43-1,0-1.92,0-2.88,0-1.36,0-1.37,0-1.4-1.43,0-1.87-.05-3.74-.08-5.61q-.18-12.82-.37-25.63c0-2.78,0-2.77-2.75-2.45C667,352.21,666.13,352.25,664.94,352.35Z" transform="translate(-630.57 -241.23)"/><path class="cls-5" d="M719,404.64c.87,1.3,1.51,2.54,2.24,3.73,1.55,2.54,2.94,5.17,4.41,7.76.9,1.58,1.78,3.17,2.75,4.7a2.42,2.42,0,0,1,.13,2.65c-1.87,3.74-3.66,7.52-5.46,11.3-1.56,3.28-3.08,6.58-4.66,9.85a2.06,2.06,0,0,0,0,2.13c.43.74.69,1.58,1.12,2.31a3.82,3.82,0,0,0,3.24,2.14c4.37.13,8.58,1.26,12.85,2,.84.15.91.58.91,1.24,0,1.38,0,1.4-1.26,1.4-8.24,0-16.48,0-24.72,0a1.45,1.45,0,0,1-1.62-1c-.07-.19-.2-.35-.27-.54-1.08-2.88-2.08-5.79-3.38-8.59a2,2,0,0,1,.16-2c2.26-3.93,4.49-7.88,6.72-11.83a3,3,0,0,0,.48-1.57c0-1.92,0-3.84,0-5.76a2.27,2.27,0,0,0-.76-1.73c-1.24-1.26-2.13-2.82-3.39-4.07-.59-.58-.11-1,.22-1.42q4-5.1,8.1-10.19C717.46,406.4,718.18,405.57,719,404.64Z" transform="translate(-630.57 -241.23)"/><path class="cls-3" d="M756.44,379.7a3,3,0,0,1-.17-1.48c0-8,0-16.09,0-24.14a6.6,6.6,0,0,1,.5-2.5c.61-1.52,1.57-2.28,2.9-2.27a3.81,3.81,0,0,1,3.27,2.55,4.94,4.94,0,0,1,.21,1.65q-.27,11.91-.52,23.82c0,.72-.2,1.1-.94,1.25C759.93,378.91,758.18,379.32,756.44,379.7Zm.44-.58c1.59-.35,3-.69,4.34-1,.61-.12.8-.39.81-1,.08-8,.6-16,.64-24a3.59,3.59,0,0,0-1.08-2.57,2.49,2.49,0,0,0-4.16.6,5.55,5.55,0,0,0-.53,2.64q0,11.84,0,23.68C756.88,378,756.88,378.45,756.88,379.11Z" transform="translate(-630.57 -241.23)"/><path class="cls-3" d="M765.91,377.56c0-.95,0-1.74,0-2.54q.2-11.67.41-23.35a8.33,8.33,0,0,1,.14-1.66,2.84,2.84,0,0,1,2.93-2.54,3.25,3.25,0,0,1,2.92,2.83,8.91,8.91,0,0,1,0,1.21q0,11.6-.08,23.2c0,1.51,0,1.5-1.57,1.82S767.57,377.2,765.91,377.56Zm.44-.58c1.54-.33,2.9-.69,4.29-.91.85-.13,1.14-.43,1.15-1.34,0-7.83.09-15.65.16-23.48a4.27,4.27,0,0,0-.28-1.63,2.64,2.64,0,0,0-2.62-1.67,2.37,2.37,0,0,0-2.16,2.17,9.16,9.16,0,0,0-.06,1.21q-.24,10.68-.48,21.36C766.33,374.06,766.36,375.42,766.36,377Z" transform="translate(-630.57 -241.23)"/><path class="cls-3" d="M747,381.71a2,2,0,0,1-.19-1.24q0-12.89.06-25.77c0-2.27,1.33-3.4,3.58-3.1a2.37,2.37,0,0,1,2.18,2.16,9,9,0,0,1,0,1.21q0,12.13,0,24.26c0,1.28,0,1.32-1.25,1.57A39.75,39.75,0,0,1,747,381.71Zm.36-14.53h-.14q0,6.36,0,12.73c0,1.33.05,1.36,1.37,1.05l2.36-.54c1.29-.29,1.3-.29,1.3-1.68q0-11.82,0-23.64a8.72,8.72,0,0,0,0-1.21,2.1,2.1,0,0,0-2-1.91,2.41,2.41,0,0,0-2.89,2.62C747.39,358.8,747.35,363,747.35,367.18Z" transform="translate(-630.57 -241.23)"/><g class="cls-10"><path class="cls-2" d="M756.88,379.11c0-.67,0-1.12,0-1.57q0-11.84,0-23.68a5.55,5.55,0,0,1,.53-2.64,2.49,2.49,0,0,1,4.16-.6,3.59,3.59,0,0,1,1.08,2.57c0,8-.56,16-.64,24,0,.61-.2.89-.81,1C759.84,378.43,758.47,378.76,756.88,379.11Z" transform="translate(-630.57 -241.23)"/></g><g class="cls-11"><path class="cls-2" d="M766.36,377c0-1.56,0-2.92,0-4.28q.23-10.68.48-21.36a9.16,9.16,0,0,1,.06-1.21,2.37,2.37,0,0,1,2.16-2.17,2.64,2.64,0,0,1,2.62,1.67,4.27,4.27,0,0,1,.28,1.63c-.07,7.83-.14,15.65-.16,23.48,0,.91-.3,1.2-1.15,1.34C769.26,376.29,767.9,376.65,766.36,377Z" transform="translate(-630.57 -241.23)"/></g><g class="cls-12"><path class="cls-2" d="M747.35,367.18c0-4.19,0-8.39,0-12.58a2.41,2.41,0,0,1,2.89-2.62,2.1,2.1,0,0,1,2,1.91,8.72,8.72,0,0,1,0,1.21q0,11.82,0,23.64c0,1.4,0,1.39-1.3,1.68l-2.36.54c-1.32.3-1.37.28-1.37-1.05q0-6.36,0-12.73Z" transform="translate(-630.57 -241.23)"/></g></g></g></svg>